<?xml version="1.0" encoding="UTF-8" standalone="no"?>
<svg
   xmlns:dc="http://purl.org/dc/elements/1.1/"
   xmlns:cc="http://creativecommons.org/ns#"
   xmlns:rdf="http://www.w3.org/1999/02/22-rdf-syntax-ns#"
   xmlns:svg="http://www.w3.org/2000/svg"
   xmlns="http://www.w3.org/2000/svg"
   xmlns:sodipodi="http://sodipodi.sourceforge.net/DTD/sodipodi-0.dtd"
   xmlns:inkscape="http://www.inkscape.org/namespaces/inkscape"
   width="70"
   height="70"
   viewBox="0 0 70 70"
   style="width: 100%; height: 100%;"
   version="1.1"
   id="svg3753"
   sodipodi:docname="chef icon-3_EWmRDh.svg"
   inkscape:version="0.92.4 (5da689c313, 2019-01-14)">
  <metadata
     id="metadata3759">
    <rdf:RDF>
      <cc:Work
         rdf:about="">
        <dc:format>image/svg+xml</dc:format>
        <dc:type
           rdf:resource="http://purl.org/dc/dcmitype/StillImage" />
      </cc:Work>
    </rdf:RDF>
  </metadata>
  <defs
     id="defs3757" />
  <sodipodi:namedview
     pagecolor="#ffffff"
     bordercolor="#666666"
     borderopacity="1"
     objecttolerance="10"
     gridtolerance="10"
     guidetolerance="10"
     inkscape:pageopacity="0"
     inkscape:pageshadow="2"
     inkscape:window-width="1366"
     inkscape:window-height="705"
     id="namedview3755"
     showgrid="false"
     inkscape:zoom="7.6571429"
     inkscape:cx="35"
     inkscape:cy="35"
     inkscape:window-x="-8"
     inkscape:window-y="-8"
     inkscape:window-maximized="1"
     inkscape:current-layer="g3749" />
  <desc
     id="desc3737">Made with illustrio</desc>
  <g
     class="content"
     id="g3749"
     transform="translate(-0.52238801,-1.4365672)">
    <circle
       cx="50%"
       cy="50%"
       r="27"
       class="main-fill"
       id="circle3739"
       style="fill:#cccccc" />
    <g
       class="base"
       id="g3747">
      <g
         class="secondary-fill"
         id="g3741"
         style="fill:#000000;fill-rule:evenodd;stroke:none" />
      <g
         transform="translate(23,19)"
         class="secondary-fill"
         id="g3745"
         style="fill:#000000;stroke:none">
        <path
           d="M 17.4,30 H 16.8 C 14.4,29.8 12.8,28.9 12,28.2 11.2,28.9 9.7,29.8 7.2,30 3.9,30.3 2.3,27.9 2,26.7 1.9,26.4 2,26.2 2.2,26 2.4,25.8 2.7,25.8 2.9,26 v 0 c 0,0 0.4,0.3 1.2,0.3 0.9,0 1.8,-0.4 2.7,-1.1 0.9,-0.7 1.9,-1.1 2.8,-1.1 1.1,0 1.9,0.5 2.4,0.8 0.4,-0.3 1.3,-0.8 2.4,-0.8 0.9,0 1.9,0.4 2.8,1.1 0.9,0.7 1.8,1.1 2.7,1.1 0.7,0 1.2,-0.3 1.2,-0.3 0.2,-0.1 0.5,-0.1 0.7,0 0.2,0.2 0.3,0.4 0.2,0.7 -0.3,1.1 -1.7,3.3 -4.6,3.3 z M 4.7,21.6 c 0,0.4 0.3,0.9 0.6,0.9 h 13 c 0.7,0.1 0.8,-0.7 0.8,-0.9 V 18.9 H 4.7 Z M 20,5.5 C 20.2,4.7 20.2,3.8 19.8,3 19.3,1.9 18.4,0.9 17.1,0.4 16,0 14.9,-0.1 13.7,0.2 12.4,0.5 11.3,1.2 10.6,2.2 9.1,1.7 7.5,1.9 6.3,2.8 4.9,3.7 4.4,5 4.7,6.4 3.4,6.5 2.1,7.2 1.5,8.3 c -0.7,1 -0.8,2.2 -0.3,3.2 0.6,1.4 2.2,2.2 3.6,2.5 v 3.7 H 19.2 V 14 c 2.1,-0.4 3.8,-2 4,-4 C 23.3,8.1 22,6.2 20,5.5 Z M 10.1,6.1 C 8.7,5.8 8.6,6.5 8.5,6.6 8.4,6.9 8.2,7.1 7.9,7.1 H 7.8 C 7.5,7 7.2,6.7 7.3,6.4 7.3,6.3 7.4,5.6 8.1,5.2 8.7,4.8 9.4,4.7 10.4,4.9 10.8,5 11,5.3 10.9,5.7 10.8,6 10.4,6.2 10.1,6.1 Z"
           class="secondary-fill"
           id="path3743"
           inkscape:connector-curvature="0"
           style="fill:#000000;stroke:none" />
      </g>
    </g>
  </g>
  <style
     id="style3751">
          .main-fill {fill: #f4ffff;}
          .main-stroke {stroke: #f4ffff;}
          .secondary-fill {fill: #000000;}
          .secondary-stroke {stroke: #000000;}

          .main-fill--darken {fill: #a7ffff;}
          .main-stroke--darken {stroke: #a7ffff;}
          .secondary-fill--darken {fill: #000000;}
          .secondary-stroke--darken {stroke: #000000;}

          .main-fill--darkener {fill: #74ffff;}
          .main-stroke--darkener {stroke: #74ffff;}
          .secondary-fill--darkener {fill: #000000;}
          .secondary-stroke--darkener {stroke: #000000;}
        </style>
</svg>
